<svg width="24" height="24" viewBox="0 0 24 24" fill="none" xmlns="http://www.w3.org/2000/svg">
<path d="M0.1875 10.7561C0.1875 8.58076 4.6575 4.53863 10.2825 7.16363C17.0925 10.3395 23.8125 8.58076 23.8125 10.7561C23.8125 12.5711 20.1304 14.0974 15.1196 14.5545C14.1263 14.6445 13.08 14.6936 12 14.6936C9.94125 14.6936 8.00663 14.517 6.3225 14.2095C2.66625 13.542 0.1875 12.2441 0.1875 10.7561ZM8.0625 9.81863C8.0625 9.40613 7.47412 9.06863 6.75 9.06863C6.02588 9.06863 5.4375 9.40613 5.4375 9.81863C5.4375 10.2311 6.02588 10.5686 6.75 10.5686C7.47412 10.5686 8.0625 10.2308 8.0625 9.81863Z" fill="#ED5565"/>
<path d="M15.1196 14.5545C14.1263 14.6445 13.08 14.6936 12 14.6936C9.94125 14.6936 8.00663 14.517 6.3225 14.2095C2.66625 13.542 0.1875 12.2441 0.1875 10.7561V13.7561C0.1875 15.207 2.5425 16.4749 6.04875 17.1574C7.79625 17.4986 9.82875 17.6936 12 17.6936C13.1287 17.6936 14.2241 17.6408 15.2587 17.5399C20.1975 17.0711 23.8125 15.5558 23.8125 13.7561V10.7561C23.8125 12.5708 20.1304 14.0974 15.1196 14.5545Z" fill="#DA4453"/>
<path d="M6.75 9.06863C7.47412 9.06863 8.0625 9.40613 8.0625 9.81863C8.0625 10.2311 7.47412 10.5686 6.75 10.5686C6.02587 10.5686 5.4375 10.2311 5.4375 9.81863C5.4375 9.40613 6.02587 9.06863 6.75 9.06863Z" fill="#E6E9ED"/>
<path d="M3.1875 15.8149C3.084 15.8149 3 15.7309 3 15.6274V14.1457C3 14.0422 3.084 13.9582 3.1875 13.9582C3.291 13.9582 3.375 14.0422 3.375 14.1457V15.6274C3.375 15.7309 3.291 15.8149 3.1875 15.8149ZM6.1875 16.6204C6.084 16.6204 6 16.5364 6 16.4329V14.9254C6 14.8219 6.084 14.7379 6.1875 14.7379C6.291 14.7379 6.375 14.8219 6.375 14.9254V16.4329C6.375 16.5367 6.291 16.6204 6.1875 16.6204ZM9.1875 17.0182C9.084 17.0182 9 16.9342 9 16.8307V15.3307C9 15.2272 9.084 15.1432 9.1875 15.1432C9.291 15.1432 9.375 15.2272 9.375 15.3307V16.8307C9.375 16.9342 9.291 17.0182 9.1875 17.0182ZM12.1875 17.1311C12.084 17.1311 12 17.0471 12 16.9436V15.4436C12 15.3401 12.084 15.2561 12.1875 15.2561C12.291 15.2561 12.375 15.3401 12.375 15.4436V16.9436C12.375 17.0471 12.291 17.1311 12.1875 17.1311ZM15.1875 16.9845C15.084 16.9845 15 16.9005 15 16.797V15.297C15 15.1935 15.084 15.1095 15.1875 15.1095C15.291 15.1095 15.375 15.1935 15.375 15.297V16.797C15.375 16.9005 15.291 16.9845 15.1875 16.9845ZM18.1875 16.5495C18.084 16.5495 18 16.4655 18 16.362V14.862C18 14.7585 18.084 14.6745 18.1875 14.6745C18.291 14.6745 18.375 14.7585 18.375 14.862V16.362C18.375 16.4655 18.291 16.5495 18.1875 16.5495ZM21.1875 15.6682C21.084 15.6682 21 15.5842 21 15.4807V13.9807C21 13.8772 21.084 13.7932 21.1875 13.7932C21.291 13.7932 21.375 13.8772 21.375 13.9807V15.4807C21.375 15.5846 21.291 15.6682 21.1875 15.6682Z" fill="#D3374E"/>
</svg>
