<svg width="24" height="24" viewBox="0 0 24 24" fill="none" xmlns="http://www.w3.org/2000/svg">
<g clip-path="url(#clip0_24_1716)">
<path d="M4.44871 0.448871C4.61559 0.352528 4.8139 0.326419 5.00003 0.376288C5.18615 0.426158 5.34484 0.547921 5.44119 0.714793L12.1795 12.3859L10.9211 13.1124L4.18279 1.44136C4.08644 1.27448 4.06034 1.07617 4.11021 0.890041C4.16008 0.703915 4.28184 0.545223 4.44871 0.448871Z" fill="#838383"/>
<path d="M13.0784 13.1126L11.8199 12.386L18.5582 0.714934C18.6059 0.632301 18.6695 0.559875 18.7452 0.50179C18.8209 0.443705 18.9073 0.4011 18.9994 0.376407C19.0916 0.351713 19.1877 0.345416 19.2823 0.357873C19.3769 0.370331 19.4681 0.4013 19.5508 0.449012C19.7176 0.545363 19.8394 0.704056 19.8893 0.890182C19.9391 1.07631 19.913 1.27462 19.8167 1.4415L13.0784 13.1126Z" fill="#838383"/>
<path d="M2.33299 10.8511C2.21206 9.16641 2.65456 8.41687 3.08299 8.04328C3.71346 7.49437 4.44237 7.74797 5.19237 7.005C5.80456 6.39563 5.53596 6.02297 6.04971 5.60109C6.92768 4.87922 7.93081 5.82797 9.40737 5.26406C10.5591 4.82438 10.3917 4.08234 11.3086 3.92016C12.5939 3.69234 13.1035 5.11969 14.7521 5.08078C15.825 5.05547 16.0355 4.49391 16.7986 4.68375C17.6344 4.89187 17.4511 5.78578 18.5855 6.54984C19.5164 7.17703 20.0892 6.87797 20.5247 7.52438C20.7928 7.92094 20.6808 8.19047 20.8857 9.165C21.0006 9.71555 21.1668 10.2541 21.3821 10.7737" fill="#F5F8F9"/>
<path d="M11.9109 9.1303C11.8417 9.12993 11.7741 9.10915 11.7166 9.07056C11.6591 9.03197 11.6143 8.97728 11.5877 8.91335C11.5612 8.84941 11.554 8.77905 11.5673 8.71109C11.5805 8.64312 11.6134 8.58056 11.662 8.53124L12.3961 7.79764C12.4287 7.76499 12.4675 7.73908 12.5102 7.72141C12.5528 7.70374 12.5986 7.69464 12.6448 7.69464C12.6909 7.69464 12.7367 7.70374 12.7793 7.72141C12.822 7.73908 12.8608 7.76499 12.8934 7.79764C12.9261 7.8303 12.952 7.86907 12.9697 7.91174C12.9873 7.9544 12.9964 8.00013 12.9964 8.04632C12.9964 8.0925 12.9873 8.13823 12.9697 8.1809C12.952 8.22356 12.9261 8.26233 12.8934 8.29499L12.1594 9.02718C12.1268 9.05996 12.0881 9.08595 12.0455 9.10365C12.0028 9.12136 11.9571 9.13041 11.9109 9.1303ZM14.7234 7.72405C14.6542 7.72368 14.5866 7.7029 14.5291 7.66431C14.4716 7.62572 14.4268 7.57103 14.4002 7.5071C14.3737 7.44316 14.3665 7.3728 14.3798 7.30484C14.393 7.23687 14.4259 7.17431 14.4745 7.12499L15.2086 6.39139C15.2745 6.32544 15.364 6.28839 15.4573 6.28839C15.5505 6.28839 15.64 6.32544 15.7059 6.39139C15.7719 6.45735 15.8089 6.5468 15.8089 6.64007C15.8089 6.73334 15.7719 6.82279 15.7059 6.88874L14.9719 7.62093C14.9393 7.65371 14.9006 7.6797 14.858 7.6974C14.8153 7.71511 14.7696 7.72416 14.7234 7.72405ZM18.2391 9.83343C18.1698 9.83305 18.1022 9.81227 18.0447 9.77368C17.9873 9.73509 17.9424 9.68041 17.9159 9.61647C17.8893 9.55253 17.8822 9.48218 17.8954 9.41421C17.9086 9.34625 17.9416 9.28369 17.9902 9.23436L18.7242 8.50077C18.7902 8.43482 18.8796 8.39777 18.9729 8.39777C19.0662 8.39777 19.1556 8.43482 19.2216 8.50077C19.2875 8.56672 19.3246 8.65617 19.3246 8.74944C19.3246 8.84271 19.2875 8.93216 19.2216 8.99811L18.4875 9.7303C18.455 9.76308 18.4163 9.78908 18.3736 9.80678C18.331 9.82448 18.2852 9.83354 18.2391 9.83343ZM8.27015 11.1262C8.20063 11.1261 8.13269 11.1055 8.0749 11.0668C8.01712 11.0281 7.97208 10.9732 7.94545 10.909C7.91883 10.8448 7.91182 10.7741 7.92531 10.7059C7.9388 10.6377 7.97218 10.575 8.02124 10.5258L8.75531 9.79218C8.82195 9.73008 8.9101 9.69627 9.00118 9.69787C9.09226 9.69948 9.17915 9.73638 9.24357 9.80079C9.30798 9.8652 9.34488 9.9521 9.34648 10.0432C9.34809 10.1343 9.31428 10.2224 9.25218 10.2891L8.51859 11.0231C8.45272 11.0891 8.36336 11.1262 8.27015 11.1262ZM15.3014 11.1262C15.2319 11.1261 15.1639 11.1055 15.1062 11.0668C15.0484 11.0281 15.0033 10.9732 14.9767 10.909C14.9501 10.8448 14.9431 10.7741 14.9566 10.7059C14.97 10.6377 15.0034 10.575 15.0525 10.5258L15.7866 9.79218C15.819 9.75858 15.8578 9.73178 15.9006 9.71334C15.9435 9.69489 15.9896 9.68517 16.0363 9.68474C16.083 9.68432 16.1293 9.69319 16.1725 9.71085C16.2157 9.7285 16.255 9.75459 16.288 9.78758C16.321 9.82058 16.3472 9.85982 16.3649 9.90301C16.3826 9.94621 16.3915 9.9925 16.3911 10.0392C16.3907 10.0859 16.381 10.132 16.3626 10.1749C16.3442 10.2178 16.3175 10.2566 16.2839 10.2891L15.5498 11.0231C15.4839 11.089 15.3946 11.1261 15.3014 11.1262ZM9.09843 7.72405C9.0292 7.72368 8.96161 7.7029 8.90412 7.66431C8.84663 7.62572 8.8018 7.57103 8.77524 7.5071C8.74867 7.44316 8.74155 7.3728 8.75476 7.30484C8.76798 7.23687 8.80094 7.17431 8.84952 7.12499L9.58359 6.39139C9.64954 6.32544 9.73899 6.28839 9.83226 6.28839C9.92553 6.28839 10.015 6.32544 10.0809 6.39139C10.1469 6.45735 10.1839 6.5468 10.1839 6.64007C10.1839 6.73334 10.1469 6.82279 10.0809 6.88874L9.34687 7.62093C9.31435 7.65371 9.27564 7.6797 9.23299 7.6974C9.19035 7.71511 9.14461 7.72416 9.09843 7.72405ZM4.17656 9.83343C4.10732 9.83305 4.03973 9.81227 3.98224 9.77368C3.92476 9.73509 3.87993 9.68041 3.85336 9.61647C3.82679 9.55253 3.81967 9.48218 3.83289 9.41421C3.8461 9.34625 3.87906 9.28369 3.92765 9.23436L4.66171 8.50077C4.69437 8.46811 4.73314 8.44221 4.7758 8.42454C4.81847 8.40686 4.8642 8.39777 4.91038 8.39777C4.95657 8.39777 5.0023 8.40686 5.04497 8.42454C5.08763 8.44221 5.1264 8.46811 5.15906 8.50077C5.19171 8.53343 5.21762 8.57219 5.23529 8.61486C5.25296 8.65753 5.26206 8.70326 5.26206 8.74944C5.26206 8.79562 5.25296 8.84135 5.23529 8.88402C5.21762 8.92669 5.19171 8.96546 5.15906 8.99811L4.42499 9.7303C4.39247 9.76308 4.35377 9.78908 4.31112 9.80678C4.26847 9.82448 4.22273 9.83354 4.17656 9.83343Z" fill="#E8EDF2"/>
<path d="M6.98865 20.3625H17.0115V22.0683C17.0115 22.4874 16.845 22.8893 16.5486 23.1856C16.2523 23.4819 15.8504 23.6484 15.4313 23.6484H8.5688C8.14972 23.6484 7.7478 23.4819 7.45146 23.1856C7.15513 22.8893 6.98865 22.4874 6.98865 22.0683V20.3625Z" fill="#FDD79B"/>
<path d="M15.6052 20.3625V22.0683C15.6052 22.4874 15.4387 22.8893 15.1424 23.1856C14.846 23.4819 14.4441 23.6484 14.025 23.6484H15.4313C15.8504 23.6484 16.2523 23.4819 16.5486 23.1856C16.8449 22.8893 17.0114 22.4874 17.0114 22.0683V20.3625H15.6052Z" fill="#FCCD7F"/>
<path d="M12.3886 21.9478H11.6114C9.32756 21.9478 7.11798 21.1363 5.37706 19.658C4.18088 18.6428 3.2511 17.3505 2.66873 15.8937C2.08636 14.4368 1.86908 12.8597 2.03581 11.2997C2.05121 11.1557 2.11934 11.0225 2.22709 10.9257C2.33484 10.829 2.47459 10.7755 2.61941 10.7756H21.3807C21.5255 10.7755 21.6652 10.829 21.773 10.9257C21.8807 11.0225 21.9489 11.1557 21.9642 11.2997C22.1311 12.8596 21.914 14.4367 21.3318 15.8935C20.7496 17.3503 19.8199 18.6427 18.6239 19.658C16.8828 21.1365 14.6728 21.948 12.3886 21.9478Z" fill="#E49280"/>
<path d="M21.9642 11.2997C21.9488 11.1557 21.8807 11.0225 21.7729 10.9257C21.6652 10.829 21.5254 10.7755 21.3806 10.7756H20.6114C20.6323 12.195 20.3388 13.6013 19.7521 14.8939C19.1653 16.1864 18.2998 17.3331 17.2176 18.2517C15.4767 19.73 13.2671 20.5416 10.9832 20.5416H10.2051C7.99356 20.5411 5.84948 19.7798 4.13293 18.3853C4.50715 18.8464 4.92331 19.2718 5.37606 19.6561C7.11698 21.1344 9.32655 21.9459 11.6104 21.9459H12.3876C14.6715 21.9459 16.8811 21.1344 18.622 19.6561C19.8181 18.6412 20.7479 17.3492 21.3304 15.8928C21.9129 14.4363 22.1305 12.8595 21.9642 11.2997Z" fill="#DD7F66"/>
<path d="M21.9643 11.2997C21.9489 11.1557 21.8807 11.0225 21.773 10.9257C21.6652 10.829 21.5255 10.7755 21.3807 10.7756H2.61944C2.47462 10.7755 2.33487 10.829 2.22712 10.9257C2.11937 11.0225 2.05124 11.1557 2.03584 11.2997C1.97745 11.8487 1.96647 12.4017 2.00303 12.9525V12.9567H21.9971C22.0339 12.4045 22.0229 11.8501 21.9643 11.2997Z" fill="#FDD79B"/>
<path d="M20.3929 12.9567H21.997C22.0097 12.7627 22.0167 12.5686 22.0176 12.3731V12.1402C22.0176 12.0666 22.0144 11.993 22.0111 11.9194C22.0111 11.888 22.0078 11.8566 22.0064 11.8256C22.0031 11.7656 21.9998 11.7056 21.9956 11.6456C21.9956 11.617 21.9914 11.5889 21.989 11.5603C21.9825 11.4736 21.975 11.3869 21.9656 11.3002C21.9502 11.1562 21.8821 11.023 21.7743 10.9262C21.6666 10.8294 21.5268 10.776 21.382 10.7761H20.6114C20.6218 11.5089 20.5486 12.2405 20.3929 12.9567Z" fill="#FCCD7F"/>
<path d="M18.2391 9.83343C18.2853 9.83354 18.331 9.82448 18.3737 9.80678C18.4163 9.78908 18.455 9.76308 18.4875 9.7303L19.2216 8.99671C19.2876 8.93075 19.3246 8.8413 19.3246 8.74804C19.3246 8.65477 19.2876 8.56532 19.2216 8.49936C19.1557 8.43341 19.0662 8.39636 18.9729 8.39636C18.8797 8.39636 18.7902 8.43341 18.7243 8.49936L17.9902 9.23436C17.9411 9.28362 17.9078 9.3463 17.8943 9.41451C17.8808 9.48271 17.8878 9.55338 17.9144 9.6176C17.941 9.68183 17.9861 9.73673 18.0439 9.77539C18.1016 9.81405 18.1696 9.83473 18.2391 9.83483V9.83343ZM14.7235 7.72405C14.7697 7.72416 14.8154 7.71511 14.858 7.6974C14.9007 7.6797 14.9394 7.65371 14.9719 7.62093L15.706 6.88733C15.7719 6.82138 15.809 6.73193 15.809 6.63866C15.809 6.54539 15.7719 6.45594 15.706 6.38999C15.64 6.32404 15.5506 6.28699 15.4573 6.28699C15.364 6.28699 15.2746 6.32404 15.2086 6.38999L14.4746 7.12499C14.4255 7.17424 14.3921 7.23693 14.3786 7.30513C14.3652 7.37333 14.3722 7.444 14.3988 7.50823C14.4254 7.57245 14.4705 7.62736 14.5282 7.66602C14.586 7.70467 14.654 7.72536 14.7235 7.72546V7.72405ZM22.3125 11.2622C22.2926 11.0754 22.2171 10.8988 22.0956 10.7555C21.9742 10.6121 21.8125 10.5086 21.6315 10.4583C21.4601 10.0152 21.3252 9.55882 21.2283 9.09374C21.1704 8.81627 21.1265 8.53608 21.0966 8.25421C21.0558 7.89702 21.0258 7.63921 20.8154 7.32655C20.506 6.86811 20.1221 6.76686 19.7513 6.6703C19.4597 6.59343 19.1588 6.51374 18.781 6.25921C18.345 5.96577 18.1365 5.66108 17.9597 5.36343L20.1216 1.61811C20.259 1.37086 20.2938 1.07951 20.2183 0.806885C20.1429 0.53426 19.9633 0.302201 19.7184 0.160747C19.4734 0.0192938 19.1827 -0.0202216 18.9088 0.050722C18.635 0.121666 18.4 0.297384 18.2546 0.539988L16.0444 4.36639C15.9291 4.40296 15.8213 4.44889 15.7163 4.49436C15.4571 4.60452 15.1894 4.71889 14.7441 4.72874C14.019 4.74655 13.5586 4.44421 13.0702 4.12405C12.5546 3.78608 12.0202 3.43686 11.2472 3.57374C10.6632 3.67686 10.4035 3.98764 10.1771 4.26186C9.96895 4.51171 9.77254 4.74796 9.28176 4.93499C8.99455 5.04527 8.68942 5.10153 8.38176 5.10093L5.74598 0.539051C5.67648 0.413994 5.58279 0.30402 5.47035 0.215541C5.35792 0.127061 5.229 0.0618438 5.09111 0.0236908C4.95322 -0.0144621 4.80912 -0.0247881 4.66719 -0.00668513C4.52527 0.0114178 4.38837 0.0575875 4.26447 0.129133C4.14058 0.200679 4.03216 0.296169 3.94554 0.410039C3.85892 0.523909 3.79582 0.653882 3.75994 0.792381C3.72406 0.93088 3.7161 1.07514 3.73653 1.21674C3.75697 1.35835 3.80538 1.49447 3.87895 1.61718L5.96301 5.22655C5.91526 5.25793 5.86926 5.29189 5.8252 5.32827C5.49708 5.59921 5.40661 5.86827 5.32833 6.10593C5.25754 6.31827 5.19708 6.50202 4.94301 6.75468C4.6027 7.09358 4.26473 7.18546 3.90708 7.28249C3.57614 7.37249 3.20067 7.47421 2.85286 7.77749C2.20036 8.34514 1.90504 9.32436 1.97161 10.6837C1.81124 10.8367 1.71055 11.0418 1.68754 11.2622C1.48078 13.1863 1.83871 15.1291 2.71764 16.8532C3.59657 18.5774 4.95847 20.0083 6.63708 20.9714V22.0683C6.6377 22.5804 6.84142 23.0714 7.20355 23.4335C7.56568 23.7956 8.05666 23.9994 8.56879 24H15.4313C15.9434 23.9994 16.4344 23.7956 16.7965 23.4335C17.1587 23.0714 17.3624 22.5804 17.363 22.0683V20.9714C18.786 20.1552 19.9854 19.0004 20.8549 17.6094C21.7244 16.2184 22.237 14.6342 22.3472 12.9975C22.3487 12.9847 22.3495 12.9719 22.3496 12.959C22.3854 12.3934 22.373 11.8257 22.3125 11.2622ZM18.863 0.890613C18.8876 0.847947 18.9204 0.810548 18.9595 0.780554C18.9986 0.750559 19.0432 0.728556 19.0907 0.715802C19.1383 0.703048 19.1879 0.699792 19.2368 0.706221C19.2856 0.71265 19.3327 0.728637 19.3754 0.753269C19.4614 0.803062 19.5242 0.885013 19.5499 0.981095C19.5756 1.07718 19.562 1.17952 19.5122 1.26561L17.5229 4.71233C17.3506 4.52829 17.1276 4.39957 16.8821 4.34249H16.8713L18.863 0.890613ZM4.48786 1.26561C4.43807 1.17952 4.42452 1.07718 4.45019 0.981095C4.47586 0.885013 4.53864 0.803062 4.62473 0.753269C4.66739 0.728637 4.71448 0.71265 4.76332 0.706221C4.81215 0.699792 4.86178 0.703048 4.90936 0.715802C4.95693 0.728556 5.00153 0.750559 5.04061 0.780554C5.07968 0.810548 5.11246 0.847947 5.13708 0.890613L7.52208 5.02124C7.22723 4.97999 6.92864 4.94389 6.63145 4.98093L4.48786 1.26561ZM3.31598 8.30858C3.54192 8.11171 3.79739 8.04233 4.0927 7.96218C4.50004 7.85061 4.96879 7.72452 5.43754 7.25436C5.81254 6.88311 5.91239 6.57514 5.99442 6.32764C6.05911 6.13218 6.09801 6.01405 6.27004 5.87249C6.58504 5.61374 6.90473 5.64421 7.48879 5.72671C8.03864 5.80405 8.72301 5.90014 9.52879 5.59264C10.1916 5.33952 10.4813 4.99124 10.7138 4.71186C10.9144 4.47046 11.0354 4.32514 11.3663 4.26655C11.8641 4.17843 12.2246 4.41421 12.6788 4.7128C13.1836 5.04093 13.8108 5.4553 14.7544 5.43233C15.3347 5.41874 15.6961 5.26452 15.9858 5.14077C16.0964 5.08915 16.2112 5.04712 16.329 5.01514L16.3543 5.00999C16.4717 4.98762 16.5926 4.99275 16.7077 5.02499C16.9735 5.09108 17.0738 5.24718 17.2749 5.59358C17.4882 5.96061 17.7535 6.41764 18.383 6.84139C18.8593 7.16249 19.2511 7.26608 19.5661 7.34952C19.9215 7.44327 20.0719 7.49014 20.2275 7.72124C20.3372 7.88343 20.3546 7.9978 20.3935 8.3353C20.4183 8.54905 20.4521 8.84108 20.5341 9.23905C20.6186 9.64081 20.7291 10.0366 20.865 10.4241H16.149L16.2835 10.2891C16.318 10.2569 16.3457 10.2181 16.3649 10.1749C16.3842 10.1318 16.3945 10.0852 16.3953 10.038C16.3962 9.99084 16.3875 9.94395 16.3698 9.90018C16.3521 9.8564 16.3258 9.81664 16.2924 9.78325C16.259 9.74987 16.2193 9.72355 16.1755 9.70587C16.1317 9.68819 16.0848 9.6795 16.0376 9.68034C15.9904 9.68117 15.9439 9.6915 15.9007 9.71072C15.8576 9.72993 15.8188 9.75764 15.7866 9.79218L15.1543 10.4241H9.1177L9.25223 10.2891C9.31433 10.2224 9.34814 10.1343 9.34653 10.0432C9.34493 9.9521 9.30803 9.8652 9.24362 9.80079C9.1792 9.73638 9.09231 9.69948 9.00123 9.69788C8.91015 9.69627 8.822 9.73008 8.75536 9.79218L8.12301 10.4241H2.66583C2.64754 9.41108 2.86504 8.69999 3.31458 8.30858H3.31598ZM16.6613 22.0683C16.6609 22.3942 16.5312 22.7067 16.3005 22.9371C16.0699 23.1675 15.7573 23.2969 15.4313 23.2969H8.56879C8.24307 23.2965 7.93078 23.1669 7.70046 22.9366C7.47013 22.7063 7.34057 22.394 7.3402 22.0683V21.3394C8.6755 21.9711 10.1342 22.299 11.6115 22.2994H12.3886C13.8658 22.299 15.3246 21.9711 16.6599 21.3394L16.6613 22.0683ZM18.3957 19.3903C16.7174 20.8139 14.5884 21.5956 12.3877 21.5962H11.6115C9.3219 21.597 7.11295 20.751 5.40965 19.2211C3.70635 17.6911 2.62905 15.5852 2.38504 13.3087H21.615C21.3628 15.674 20.2104 17.8515 18.3966 19.3903H18.3957ZM21.6615 12.6056H2.3377C2.32436 12.1822 2.34002 11.7584 2.38458 11.3372C2.38833 11.3018 2.40008 11.2678 2.41892 11.2377C2.43776 11.2076 2.4632 11.1821 2.49333 11.1633L2.49848 11.1605C2.53475 11.1387 2.57621 11.1272 2.61848 11.1272H21.3807C21.4388 11.1269 21.495 11.1482 21.5383 11.187C21.5817 11.2258 21.609 11.2793 21.615 11.3372C21.6598 11.7584 21.6756 12.1822 21.6624 12.6056H21.6615ZM4.17708 9.83343C4.22325 9.83354 4.26899 9.82448 4.31164 9.80678C4.35428 9.78908 4.39299 9.76308 4.42551 9.7303L5.15958 8.99671C5.22553 8.93075 5.26258 8.8413 5.26258 8.74804C5.26258 8.65477 5.22553 8.56532 5.15958 8.49936C5.09362 8.43341 5.00417 8.39636 4.9109 8.39636C4.81763 8.39636 4.72818 8.43341 4.66223 8.49936L3.9277 9.23436C3.87864 9.28362 3.84525 9.3463 3.83177 9.41451C3.81828 9.48271 3.82529 9.55338 3.85191 9.6176C3.87853 9.68183 3.92358 9.73673 3.98136 9.77539C4.03915 9.81405 4.10708 9.83473 4.17661 9.83483L4.17708 9.83343ZM11.9115 9.1303C11.9576 9.13041 12.0034 9.12136 12.046 9.10365C12.0887 9.08595 12.1274 9.05996 12.1599 9.02718L12.894 8.29358C12.9599 8.22763 12.997 8.13818 12.997 8.04491C12.997 7.95164 12.9599 7.86219 12.894 7.79624C12.828 7.73029 12.7386 7.69324 12.6453 7.69324C12.552 7.69324 12.4626 7.73029 12.3966 7.79624L11.6621 8.53124C11.613 8.58049 11.5796 8.64318 11.5661 8.71138C11.5527 8.77958 11.5597 8.85025 11.5863 8.91448C11.6129 8.9787 11.658 9.03361 11.7157 9.07227C11.7735 9.11092 11.8415 9.13161 11.911 9.13171L11.9115 9.1303ZM9.09895 7.72405C9.14513 7.72416 9.19086 7.71511 9.23351 7.6974C9.27616 7.6797 9.31487 7.65371 9.34739 7.62093L10.0815 6.88733C10.1474 6.82138 10.1845 6.73193 10.1845 6.63866C10.1845 6.54539 10.1474 6.45594 10.0815 6.38999C10.0155 6.32404 9.92605 6.28699 9.83278 6.28699C9.73951 6.28699 9.65006 6.32404 9.58411 6.38999L8.84958 7.12499C8.80051 7.17424 8.76713 7.23693 8.75364 7.30513C8.74015 7.37333 8.74716 7.444 8.77379 7.50823C8.80041 7.57245 8.84545 7.62736 8.90324 7.66602C8.96102 7.70467 9.02896 7.72536 9.09848 7.72546L9.09895 7.72405Z" fill="black"/>
</g>
<defs>
<clipPath id="clip0_24_1716">
<rect width="24" height="24" fill="white"/>
</clipPath>
</defs>
</svg>
