<svg width="24" height="24" viewBox="0 0 24 24" fill="none" xmlns="http://www.w3.org/2000/svg">
<g clip-path="url(#clip0_24_1667)">
<mask id="mask0_24_1667" style="mask-type:luminance" maskUnits="userSpaceOnUse" x="0" y="0" width="24" height="24">
<path d="M0 0H24V24H0V0Z" fill="white"/>
</mask>
<g mask="url(#mask0_24_1667)">
<path d="M22.7368 12.6316C22.7368 11.3286 22.505 10.0806 22.08 8.92546C21.7894 12.329 19.9749 14.0773 18.0789 13.2631C16.3023 12.5002 17.4998 9.52609 17.5882 8.10694C17.7372 5.70125 17.5806 2.94757 13.2107 0.658092C15.0265 4.13178 13.421 6.28925 11.7366 6.42125C9.8684 6.56651 8.15808 4.81578 8.78966 1.97367C6.74461 3.48062 6.68461 6.01704 7.31555 7.65788C7.97366 9.3682 7.28966 10.7893 5.68419 10.9471C3.89113 11.124 2.8945 9.02651 3.81345 5.6842C2.16378 7.62276 1.25951 10.0861 1.26313 12.6316C1.26313 18.5615 6.07008 23.3684 12 23.3684C17.9299 23.3684 22.7368 18.5615 22.7368 12.6316Z" fill="#F4900C"/>
</g>
<mask id="mask1_24_1667" style="mask-type:luminance" maskUnits="userSpaceOnUse" x="1" y="0" width="22" height="24">
<path d="M11.7366 6.42125C9.86903 6.56715 8.15808 4.81578 8.78966 1.97367C6.74398 3.48062 6.68524 6.01767 7.31619 7.65788C7.97366 9.3682 7.28966 10.7893 5.68419 10.9471C3.89113 11.124 2.89513 9.02588 3.81345 5.6842C2.16378 7.62276 1.25951 10.0861 1.26313 12.6316C1.26313 18.5615 6.07008 23.3684 12 23.3684C17.9299 23.3684 22.7368 18.5615 22.7368 12.6316C22.7368 11.3286 22.505 10.0806 22.08 8.92546C21.7894 12.3284 19.9749 14.0773 18.0789 13.2631C16.3029 12.5002 17.4998 9.52609 17.5882 8.10694C17.7372 5.70125 17.5806 2.94757 13.2107 0.658092C15.0265 4.13115 13.421 6.28988 11.7366 6.42125Z" fill="white"/>
</mask>
<g mask="url(#mask1_24_1667)">
<path d="M19.5789 19.579C19.5789 18.1977 19.2101 16.9036 18.5652 15.7888C18.6581 17.7366 16.9471 18.5002 16.0263 18.1314C14.6968 17.599 15.053 16.6844 14.7107 14.7897C14.3684 12.895 13.0528 11.5787 11.105 11.0002C12.5261 15 10.3174 16.4741 9.15976 16.7375C7.97745 17.0065 6.78945 16.7368 6.65366 14.2067C5.94509 14.9103 5.38296 15.7473 4.99975 16.6694C4.61654 17.5915 4.41984 18.5804 4.42103 19.579C4.42103 23.7644 7.8145 27.1579 12 27.1579C16.1854 27.1579 19.5789 23.7644 19.5789 19.579Z" fill="#FFCC4D"/>
</g>
</g>
<defs>
<clipPath id="clip0_24_1667">
<rect width="24" height="24" fill="white"/>
</clipPath>
</defs>
</svg>
