<svg width="24" height="24" viewBox="0 0 24 24" fill="none" xmlns="http://www.w3.org/2000/svg">
<path d="M11.8641 6.37162H10.2356C10.0234 6.2139 9.83717 6.02384 9.68383 5.80838C9.62064 5.72213 9.56308 5.63025 9.50946 5.53444C9.05927 4.71638 9.09002 3.76425 9.50571 3C10.0832 3.03778 10.6323 3.26389 11.0689 3.64369C11.3024 3.84613 11.4976 4.08878 11.6455 4.36012C11.8134 4.66417 11.9193 4.99859 11.9568 5.34392C11.9943 5.68925 11.9628 6.03859 11.8641 6.37162ZM14.4923 5.53444C14.3122 5.8623 14.0639 6.14777 13.7642 6.37162H12.1378C12.0861 6.19725 12.0516 6.01725 12.0383 5.83331C11.9959 5.32204 12.1052 4.80962 12.3525 4.36012C12.7528 3.63412 13.4445 3.17231 14.2011 3.03638C14.298 3.01851 14.3958 3.00637 14.4941 3C14.9081 3.76444 14.9425 4.71656 14.4923 5.53444Z" fill="#1AB975"/>
<path d="M11.8641 6.37162H10.2357C10.0234 6.2139 9.83718 6.02384 9.68384 5.80838H11.3083C11.5094 5.09472 11.4299 4.33119 11.0862 3.67425C11.0808 3.6638 11.075 3.65354 11.0689 3.6435C11.3024 3.84594 11.4976 4.08859 11.6455 4.35994C11.8134 4.66402 11.9193 4.99847 11.9568 5.34383C11.9943 5.68918 11.9628 6.03856 11.8641 6.37162ZM14.4923 5.53444C14.3122 5.8623 14.0639 6.14777 13.7642 6.37162H12.1378C12.0861 6.19725 12.0516 6.01725 12.0383 5.83331H13.2107C13.5163 5.60658 13.7692 5.31645 13.9521 4.98281C14.295 4.36219 14.3622 3.67238 14.2011 3.03638C14.298 3.01851 14.3958 3.00637 14.4942 3C14.9082 3.76444 14.9425 4.71656 14.4923 5.53444Z" fill="#168E57"/>
<path d="M11.232 6.41887C11.1641 6.41887 11.0985 6.38268 11.0636 6.31893L9.90972 4.20375C9.89768 4.18166 9.89011 4.15742 9.88744 4.1324C9.88476 4.10739 9.88705 4.0821 9.89415 4.05796C9.90125 4.03383 9.91304 4.01134 9.92884 3.99176C9.94464 3.97218 9.96413 3.95591 9.98622 3.94387C10.0083 3.93183 10.0325 3.92426 10.0576 3.92159C10.0826 3.91891 10.1079 3.92119 10.132 3.9283C10.1561 3.9354 10.1786 3.94719 10.1982 3.96299C10.2178 3.97878 10.2341 3.99828 10.2461 4.02037L11.4 6.13575C11.4159 6.1649 11.4239 6.19768 11.4233 6.23089C11.4227 6.26409 11.4135 6.29656 11.3966 6.32512C11.3796 6.35368 11.3555 6.37734 11.3267 6.39378C11.2978 6.41021 11.2652 6.41886 11.232 6.41887ZM12.77 6.41887C12.7368 6.41888 12.7041 6.41023 12.6753 6.39379C12.6464 6.37734 12.6223 6.35366 12.6053 6.32508C12.5884 6.29649 12.5792 6.26398 12.5786 6.23075C12.578 6.19752 12.5861 6.16471 12.602 6.13556L13.7557 4.02018C13.7808 3.977 13.8217 3.94531 13.8698 3.93185C13.9179 3.9184 13.9693 3.92424 14.0132 3.94814C14.057 3.97204 14.0898 4.01211 14.1045 4.05981C14.1193 4.10752 14.1148 4.15909 14.0921 4.20356L12.9384 6.31893C12.922 6.34922 12.8976 6.37449 12.868 6.39208C12.8383 6.40967 12.8045 6.41893 12.77 6.41887Z" fill="#168E57"/>
<path d="M20.9408 7.10793V10.4346C20.9408 10.7076 20.9291 10.9787 20.9042 11.2479C20.5196 15.5169 17.1313 18.9204 12.8702 19.332H11.1319C6.8687 18.9206 3.48039 15.5171 3.09583 11.2481C3.07851 11.0498 3.06695 10.851 3.06114 10.6521C3.05927 10.5789 3.05927 10.5079 3.05927 10.4347V7.10793C3.05927 6.9126 3.13686 6.72527 3.27498 6.58715C3.4131 6.44903 3.60043 6.37143 3.79577 6.37143H20.2043C20.301 6.37128 20.3969 6.39023 20.4863 6.42719C20.5757 6.46415 20.657 6.5184 20.7254 6.58682C20.7938 6.65524 20.848 6.73649 20.885 6.82591C20.922 6.91533 20.9409 7.01117 20.9408 7.10793Z" fill="#E1EBF0"/>
<path d="M20.9407 8.80988V10.4348C20.9407 10.7078 20.9291 10.9789 20.9042 11.2481H3.09578C3.07847 11.0498 3.0669 10.851 3.0611 10.6521V8.80988H20.9407Z" fill="#FB5858"/>
<path d="M16.8793 19.9905V20.3411C16.8793 20.5159 16.8099 20.6836 16.6863 20.8072C16.5627 20.9308 16.3951 21.0002 16.2203 21.0002H7.78351C7.62909 21.0004 7.47954 20.9461 7.36114 20.847C7.24274 20.7479 7.16305 20.6102 7.13607 20.4581C7.12837 20.4197 7.12454 20.3805 7.12464 20.3413V19.9907C7.12464 19.8159 7.19407 19.6483 7.31767 19.5247C7.44127 19.4011 7.6089 19.3316 7.7837 19.3316H16.2204C16.3104 19.3316 16.3986 19.3508 16.4771 19.3834C16.479 19.3853 16.4809 19.3853 16.4809 19.3853C16.5991 19.4362 16.6999 19.5207 16.7707 19.6283C16.8415 19.7358 16.8792 19.8617 16.8793 19.9905Z" fill="#E1EBF0"/>
<path d="M20.9407 7.10738V10.434C20.9407 10.707 20.9291 10.9781 20.9042 11.2474C20.5196 15.5164 17.1313 18.9199 12.8702 19.3314H11.1319C8.67429 19.095 6.50904 17.8643 5.03998 16.0451C6.39738 17.1433 8.0478 17.8181 9.78579 17.9854H11.5241C15.7854 17.5738 19.1735 14.1703 19.5581 9.90132C19.583 9.63207 19.5947 9.36094 19.5947 9.08794V6.37088H20.2042C20.301 6.37071 20.3968 6.38964 20.4863 6.42659C20.5757 6.46354 20.657 6.51779 20.7254 6.58621C20.7938 6.65464 20.8481 6.7359 20.885 6.82533C20.922 6.91476 20.9409 7.01061 20.9407 7.10738Z" fill="#B4BCBF"/>
<path d="M20.9408 8.80988V10.2426C20.9408 10.5156 20.9291 10.7867 20.9042 11.0559C20.8984 11.1193 20.8926 11.1848 20.883 11.2483H19.2812C19.4188 10.7447 19.5114 10.2299 19.5581 9.70988C19.5831 9.44063 19.5947 9.1695 19.5947 8.8965V8.80988H20.9408Z" fill="#C94B4B"/>
<path d="M16.8793 19.9905V20.3411C16.8793 20.5159 16.8099 20.6836 16.6863 20.8072C16.5627 20.9308 16.395 21.0002 16.2202 21.0002H7.78349C7.62906 21.0004 7.47952 20.9461 7.36112 20.847C7.24271 20.7479 7.16303 20.6102 7.13605 20.4581H15.7357C16.1074 20.4581 16.41 20.1632 16.41 19.7991V19.4485C16.41 19.4235 16.4081 19.3986 16.4042 19.3718C16.4291 19.3736 16.454 19.3795 16.4769 19.3832C16.4788 19.3851 16.4807 19.3851 16.4807 19.3851C16.5989 19.4361 16.6997 19.5206 16.7705 19.6282C16.8414 19.7358 16.8792 19.8617 16.8793 19.9905Z" fill="#B4BCBF"/>
</svg>
